<svg xmlns="http://www.w3.org/2000/svg" width="29" height="22" viewBox="0 0 29 22" fill="none">
<path d="M2.42467 9.47083C9.94226 6.36639 14.9539 4.31956 17.4598 3.33071C24.6228 0.506999 26.1094 0.0165851 27.0803 0.000161523C27.2938 -0.00327597 27.7692 0.0467582 28.0794 0.284709C28.3373 0.485229 28.4098 0.756408 28.4461 0.946616C28.4783 1.13682 28.5227 1.57033 28.4864 1.90873C28.0997 5.774 26.4197 15.1538 25.5656 19.4831C25.2071 21.315 24.4939 21.9291 23.805 21.9891C22.3063 22.1197 21.1702 21.051 19.7198 20.15C17.4517 18.7394 16.1706 17.8617 13.9669 16.4856C11.4208 14.8952 13.0725 14.0209 14.5228 12.5925C14.9015 12.2185 21.5005 6.52948 21.6254 6.01348C21.6415 5.94893 21.6577 5.7083 21.5046 5.5815C21.3556 5.45431 21.1339 5.49785 20.9727 5.53223C20.7431 5.58112 17.1213 7.85292 10.0952 12.3472C9.06785 13.0172 8.13724 13.3437 7.29926 13.3265C6.38072 13.3078 4.6082 12.8331 3.29081 12.4275C1.67932 11.9298 0.394094 11.6666 0.506899 10.8214C0.563301 10.3814 1.20397 9.93107 2.42467 9.47083Z" fill="url(#paint0_linear_83_6)"/>
<defs>
    <linearGradient id="paint0_linear_83_6" x1="2.76528" y1="-4.4837" x2="29.7984" y2="-3.4822" gradientUnits="userSpaceOnUse">
        <stop stop-color="white"/>
        <stop offset="1" stop-color="#B3B3B3"/>
    </linearGradient>
</defs>
</svg>