<svg width="246" height="234" fill="none" xmlns="http://www.w3.org/2000/svg">
  <defs>
    <linearGradient id="gradient">
      <stop stop-color="#9F3" />
      <stop offset="1" stop-color="#E1FF00" />
    </linearGradient>

    <mask id="questions">
      <g  fill-rule="evenodd" clip-rule="evenodd" fill="#fff">
        <path
          d="M175.192 11.506c-3.336.047-5.672-2.227-5.72-5.674-.048-3.425 2.224-5.785 5.559-5.831 3.336-.047 5.672 2.248 5.72 5.674.048 3.447-2.224 5.785-5.559 5.831zm-.029-2.02c1.931-.027 3.182-1.603 3.152-3.777-.03-2.174-1.325-3.715-3.256-3.688-1.931.027-3.182 1.603-3.151 3.777.03 2.174 1.324 3.715 3.255 3.688z" />
        <path
          d="M155.865 6.022c.048 3.447 2.384 5.72 5.719 5.674 3.336-.046 5.607-2.384 5.559-5.831-.047-3.426-2.384-5.72-5.719-5.674-3.336.046-5.607 2.406-5.559 5.831zm8.843-.123c.03 2.173-1.221 3.75-3.152 3.777-1.931.027-3.225-1.514-3.256-3.688-.03-2.174 1.221-3.75 3.152-3.777 1.931-.027 3.225 1.514 3.256 3.688z" />
        <path
          d="M147.977 11.886c-3.336.047-5.672-2.227-5.72-5.674-.048-3.425 2.224-5.785 5.559-5.831 3.336-.047 5.672 2.248 5.72 5.674.048 3.447-2.224 5.784-5.559 5.831zm-.028-2.02c1.931-.027 3.182-1.604 3.151-3.777-.03-2.174-1.324-3.715-3.255-3.688-1.931.027-3.182 1.603-3.152 3.777.03 2.174 1.325 3.715 3.256 3.688z" />
        <path
          d="M128.65 6.402c.048 3.447 2.384 5.72 5.719 5.674 3.336-.046 5.608-2.384 5.56-5.831-.048-3.426-2.385-5.721-5.72-5.675-3.335.047-5.607 2.407-5.559 5.832zm8.843-.123c.03 2.173-1.221 3.75-3.152 3.777-1.931.027-3.225-1.514-3.256-3.688-.03-2.174 1.221-3.75 3.152-3.778 1.931-.026 3.226 1.515 3.256 3.689z" />
        <path
          d="M120.762 12.266c-3.335.046-5.672-2.227-5.72-5.674-.047-3.425 2.224-5.785 5.56-5.832 3.335-.046 5.671 2.25 5.719 5.674.048 3.448-2.224 5.785-5.559 5.832zm-.028-2.02c1.931-.027 3.182-1.604 3.151-3.778-.03-2.173-1.324-3.715-3.255-3.688-1.931.027-3.182 1.604-3.152 3.778.03 2.174 1.325 3.715 3.256 3.688z" />
        <path
          d="M101.435 6.782c.048 3.447 2.384 5.72 5.719 5.674 3.336-.047 5.608-2.384 5.56-5.832-.048-3.425-2.385-5.72-5.72-5.674-3.335.047-5.607 2.406-5.559 5.832zm8.843-.124c.03 2.174-1.221 3.75-3.152 3.778-1.931.027-3.225-1.514-3.255-3.688-.031-2.174 1.22-3.75 3.151-3.778 1.931-.027 3.226 1.515 3.256 3.688z" />
        <path
          d="M91.834 11c.014.967.747 1.637 1.713 1.624.965-.014 1.68-.705 1.666-1.67-.013-.967-.747-1.637-1.712-1.624-.966.014-1.68.704-1.667 1.67z" />
        <path
          d="M187.086 9.671c.014.966.747 1.637 1.713 1.623.965-.013 1.68-.704 1.666-1.67-.013-.966-.747-1.637-1.712-1.623-.966.013-1.68.704-1.667 1.67z" />
        <path
          d="m83.234 30.337-.078-5.6 2.37-.032.214 15.37-2.062.029-.309-1.665c-.71.998-1.84 1.826-3.573 1.85-3.029.043-5.297-2.078-5.347-5.679-.048-3.469 2.224-5.785 5.23-5.827 1.646-.023 2.818.62 3.555 1.554zm-3.071 7.949c1.93-.027 3.182-1.582 3.152-3.756-.031-2.24-1.326-3.759-3.257-3.732-1.953.028-3.204 1.582-3.173 3.778.03 2.196 1.325 3.737 3.278 3.71z" />
        <path
          d="m88.99 40.03 2.502-.035-.078-5.578 3.094-.043c3.094-.043 5.108-2.004 5.067-4.968-.042-2.986-2.11-4.868-5.203-4.825l-5.596.078.215 15.37zm2.394-7.808-.076-5.402 2.81-.039c1.777-.025 2.91.992 2.933 2.66.023 1.647-1.103 2.717-2.859 2.741l-2.808.04z" />
        <path
          d="m108.31 30.778-1.8.025-.613-4.67c-.146-1.03.369-1.828 1.422-1.842 1.098-.015 1.591.768 1.474 1.802l-.483 4.685z" />
        <path d="m160.828 26.706 1.821-.025-1.733-3.094-2.743.038 2.655 3.081z" />
        <path
          d="m176.801 38.804-2.457.034-.081-5.775-5.378-9.522 2.831-.04 3.76 6.822 3.656-6.925 2.699-.037-5.11 9.69.08 5.753z" />
        <path
          d="M194.738 34.315c-.028-2.042-1.319-3.298-2.839-3.716a3.544 3.544 0 0 0 2.323-3.414c-.034-2.46-2.098-4.1-5.258-4.056-3.16.044-5.178 1.742-5.143 4.2.024 1.735 1.116 2.928 2.395 3.35-1.53.482-2.74 1.817-2.713 3.793.036 2.569 2.146 4.34 5.679 4.29 3.532-.048 5.592-1.878 5.556-4.447zm-8.481-6.975c-.019-1.34 1.088-2.277 2.733-2.3 1.668-.024 2.778.883 2.797 2.223.019 1.383-1.065 2.32-2.733 2.344-1.646.023-2.778-.884-2.797-2.267zm6 6.922c.021 1.493-1.237 2.565-3.102 2.59-1.843.026-3.153-1.01-3.173-2.503-.021-1.493 1.259-2.565 3.102-2.59 1.865-.026 3.153 1.01 3.173 2.503z" />
        <path
          d="M203.177 27.06c3.006-.042 5.274 2.056 5.325 5.68.048 3.447-2.18 5.784-5.252 5.826-1.69.024-2.863-.662-3.578-1.619l-.242 1.541-2.063.029-.214-15.37 2.37-.033.08 5.774c.711-.998 1.863-1.804 3.574-1.828zm-.284 9.513c1.931-.027 3.204-1.582 3.173-3.8-.03-2.195-1.347-3.714-3.278-3.687-1.952.027-3.182 1.581-3.152 3.755.031 2.218 1.304 3.76 3.257 3.732z" />
        <path
          d="M86.261 63.28c-.028-2.041-1.319-3.297-2.839-3.715a3.544 3.544 0 0 0 2.323-3.414c-.034-2.46-2.098-4.1-5.258-4.056-3.16.044-5.177 1.742-5.143 4.2.024 1.735 1.116 2.928 2.395 3.35-1.53.482-2.74 1.816-2.713 3.793.036 2.569 2.146 4.34 5.679 4.29 3.533-.049 5.592-1.878 5.556-4.447zm-8.48-6.974c-.02-1.34 1.087-2.278 2.732-2.3 1.668-.024 2.778.883 2.797 2.222.02 1.384-1.065 2.321-2.733 2.344-1.646.023-2.778-.883-2.797-2.266zm6 6.922c.02 1.493-1.238 2.564-3.103 2.59-1.843.026-3.152-1.01-3.173-2.503-.021-1.493 1.259-2.565 3.102-2.59 1.865-.027 3.153 1.01 3.174 2.503z" />
        <path
          d="M97.03 59.375c1.52.418 2.81 1.674 2.839 3.716.036 2.569-2.024 4.399-5.557 4.448-3.533.05-5.642-1.722-5.678-4.291-.028-1.976 1.183-3.311 2.712-3.794-1.279-.421-2.37-1.614-2.395-3.348-.034-2.46 1.984-4.157 5.143-4.2 3.16-.045 5.224 1.595 5.258 4.055a3.544 3.544 0 0 1-2.322 3.414zm-2.91-5.56c-1.645.024-2.751.961-2.732 2.3.019 1.384 1.15 2.29 2.797 2.268 1.667-.024 2.752-.961 2.732-2.345-.018-1.339-1.128-2.246-2.796-2.222zm.166 11.814c1.865-.026 3.123-1.098 3.102-2.591-.02-1.493-1.308-2.53-3.173-2.504-1.844.026-3.124 1.098-3.103 2.591.021 1.493 1.33 2.53 3.174 2.504z" />
        <path
          d="M102.2 61.675c.048 3.447 2.384 5.72 5.72 5.674 3.335-.047 5.607-2.384 5.559-5.832-.048-3.425-2.384-5.72-5.72-5.674-3.335.047-5.607 2.406-5.559 5.832zm8.843-.124c.03 2.174-1.221 3.75-3.152 3.778-1.931.027-3.225-1.514-3.255-3.688-.031-2.174 1.22-3.75 3.151-3.778 1.931-.027 3.226 1.515 3.256 3.688z" />
        <path
          d="M162.349 66.567c-.965.014-1.699-.657-1.713-1.623-.013-.966.702-1.657 1.667-1.67.966-.014 1.699.657 1.713 1.623.013.966-.701 1.657-1.667 1.67z" />
        <path
          d="m178.791 50.855.078 5.599c-.737-.934-1.91-1.577-3.555-1.554-3.007.042-5.279 2.358-5.23 5.827.05 3.601 2.318 5.722 5.346 5.68 1.734-.025 2.863-.853 3.574-1.851l.308 1.665 2.063-.03-.214-15.37-2.37.034zm.158 9.793c.031 2.173-1.221 3.728-3.152 3.755-1.953.027-3.247-1.514-3.278-3.71-.03-2.195 1.221-3.75 3.174-3.777 1.931-.027 3.225 1.492 3.256 3.732z" />
        <path
          d="M192.282 58.046c1.52.418 2.81 1.673 2.839 3.715.036 2.57-2.024 4.4-5.557 4.448-3.533.05-5.642-1.722-5.678-4.29-.028-1.977 1.183-3.311 2.712-3.794-1.279-.421-2.371-1.614-2.395-3.349-.034-2.459 1.983-4.156 5.143-4.2 3.16-.044 5.224 1.596 5.258 4.055a3.543 3.543 0 0 1-2.322 3.415zm-2.909-5.56c-1.646.023-2.752.96-2.733 2.3.019 1.384 1.151 2.29 2.797 2.267 1.667-.023 2.752-.96 2.732-2.344-.018-1.34-1.128-2.246-2.796-2.223zm.165 11.813c1.865-.026 3.123-1.098 3.102-2.59-.021-1.494-1.308-2.53-3.173-2.504-1.844.026-3.124 1.098-3.103 2.59.021 1.494 1.33 2.53 3.174 2.504z" />
        <path
          d="m198.233 65.957 2.501-.035-.078-5.577 3.094-.044c3.094-.043 5.108-2.004 5.067-4.968-.042-2.986-2.109-4.868-5.203-4.825l-5.596.079.215 15.37zm2.393-7.808-.076-5.402 2.809-.039c1.778-.025 2.911.992 2.934 2.66.023 1.647-1.103 2.717-2.859 2.742l-2.808.039z" />
        <path d="m81.77 82.713-1.822.026-2.654-3.082 2.743-.038 1.733 3.094z" />
        <path
          d="m91.276 85.919 1.822-.025.461-4.685c.117-1.034-.376-1.817-1.474-1.802-1.053.015-1.547.812-1.4 1.842l.591 4.67z" />
        <path
          d="m96.038 85.853 1.821-.026.462-4.684c.117-1.034-.377-1.818-1.474-1.802-1.053.014-1.569.812-1.423 1.842l.614 4.67z" />
        <path
          d="m109.075 85.67-1.799.026-.614-4.67c-.146-1.03.369-1.828 1.423-1.842 1.097-.016 1.591.768 1.473 1.802l-.483 4.685z" />
        <path
          d="M133.804 92.77c.014.967.747 1.637 1.713 1.624.965-.014 1.68-.705 1.666-1.67-.013-.967-.747-1.638-1.712-1.624-.966.014-1.68.704-1.667 1.67z" />
        <path
          d="m152.037 84.28-.078-5.599 2.369-.033.215 15.37-2.063.029-.309-1.665c-.71.998-1.84 1.827-3.573 1.851-3.028.042-5.297-2.078-5.347-5.68-.048-3.469 2.224-5.784 5.23-5.826 1.646-.023 2.818.62 3.556 1.553zm-3.072 7.95c1.931-.028 3.182-1.582 3.152-3.756-.031-2.24-1.325-3.759-3.256-3.732-1.953.027-3.205 1.582-3.174 3.778.031 2.195 1.325 3.737 3.278 3.71z" />
        <path
          d="M168.288 89.588c-.028-2.042-1.318-3.298-2.839-3.716a3.544 3.544 0 0 0 2.323-3.415c-.034-2.459-2.098-4.099-5.258-4.055-3.16.044-5.177 1.742-5.143 4.2.024 1.735 1.116 2.928 2.395 3.35-1.53.482-2.74 1.817-2.712 3.793.035 2.569 2.145 4.34 5.678 4.29 3.533-.049 5.592-1.878 5.556-4.447zm-8.481-6.975c-.018-1.34 1.088-2.278 2.734-2.3 1.667-.024 2.777.883 2.796 2.222.019 1.384-1.065 2.321-2.733 2.345-1.645.023-2.777-.884-2.797-2.267zm6.001 6.922c.02 1.493-1.238 2.564-3.103 2.59-1.843.026-3.152-1.01-3.173-2.503-.021-1.493 1.259-2.565 3.102-2.59 1.865-.027 3.153 1.01 3.174 2.503z" />
        <path
          d="m173.902 93.748-2.502.035-.214-15.37 5.596-.078c3.094-.043 5.161 1.838 5.203 4.825.041 2.964-1.973 4.925-5.067 4.968l-3.094.043.078 5.577zm-.184-13.174.075 5.401 2.809-.039c1.756-.025 2.882-1.094 2.859-2.741-.023-1.669-1.157-2.685-2.934-2.66l-2.809.039z" />
        <path
          d="m188.92 84.556 1.799-.025.484-4.684c.117-1.034-.377-1.818-1.474-1.803-1.053.015-1.569.813-1.423 1.843l.614 4.67z" />
        <path
          d="M138.617 113.698c1.52.418 2.811 1.674 2.839 3.716.036 2.569-2.023 4.399-5.556 4.448-3.533.049-5.643-1.722-5.679-4.291-.027-1.976 1.183-3.311 2.713-3.793-1.279-.422-2.371-1.614-2.395-3.349-.035-2.459 1.983-4.156 5.143-4.2 3.16-.045 5.224 1.596 5.258 4.055a3.543 3.543 0 0 1-2.323 3.414zm-2.909-5.559c-1.645.023-2.752.961-2.733 2.3.019 1.383 1.151 2.29 2.797 2.267 1.668-.023 2.752-.961 2.733-2.344-.019-1.34-1.129-2.246-2.797-2.223zm.165 11.813c1.865-.026 3.123-1.098 3.102-2.591-.02-1.493-1.308-2.529-3.173-2.503-1.843.025-3.123 1.097-3.102 2.591.02 1.493 1.33 2.528 3.173 2.503z" />
        <path
          d="M155.064 117.224c-.029-2.042-1.319-3.298-2.839-3.716a3.542 3.542 0 0 0 2.322-3.414c-.034-2.459-2.098-4.1-5.258-4.055-3.16.044-5.177 1.741-5.143 4.2.024 1.735 1.116 2.927 2.395 3.349-1.529.482-2.74 1.817-2.712 3.793.035 2.569 2.145 4.34 5.678 4.291 3.533-.049 5.592-1.879 5.557-4.448zm-8.482-6.975c-.018-1.339 1.088-2.277 2.734-2.3 1.667-.023 2.777.883 2.796 2.223.019 1.383-1.065 2.321-2.733 2.344-1.645.023-2.777-.884-2.797-2.267zm6.001 6.922c.021 1.493-1.237 2.565-3.103 2.591-1.843.026-3.152-1.01-3.173-2.503-.021-1.493 1.259-2.566 3.102-2.591 1.866-.026 3.153 1.01 3.174 2.503z" />
        <path
          d="m163.887 112.357-1.799.026-.614-4.67c-.146-1.03.37-1.828 1.423-1.842 1.097-.016 1.591.768 1.474 1.802l-.484 4.684z" />
        <path
          d="M121.051 154.257c.014.967.747 1.637 1.713 1.624.965-.014 1.68-.705 1.666-1.671-.013-.966-.747-1.636-1.712-1.623-.966.014-1.68.704-1.667 1.67z" />
        <path
          d="M136.371 155.713c-3.335.046-5.671-2.227-5.719-5.674-.048-3.426 2.224-5.785 5.559-5.832 3.335-.046 5.672 2.249 5.72 5.674.048 3.448-2.224 5.785-5.56 5.832zm-.028-2.02c1.931-.027 3.182-1.604 3.152-3.778-.03-2.174-1.325-3.715-3.256-3.688-1.931.027-3.182 1.604-3.151 3.778.03 2.173 1.324 3.715 3.255 3.688z" />
        <path
          d="M148.266 153.878c.013.966.747 1.636 1.713 1.623.965-.014 1.68-.704 1.666-1.671-.013-.966-.747-1.636-1.712-1.623-.966.014-1.68.705-1.667 1.671z" />
        <path
          d="m124.374 183.2-2.458.035-.081-5.775-5.378-9.522 2.831-.04 3.76 6.822 3.657-6.925 2.699-.038-5.111 9.69.081 5.753z" />
        <path
          d="M142.311 178.711c-.029-2.042-1.319-3.297-2.839-3.715a3.544 3.544 0 0 0 2.322-3.415c-.034-2.459-2.098-4.099-5.258-4.055-3.16.044-5.177 1.741-5.143 4.2.024 1.735 1.116 2.927 2.395 3.349-1.529.482-2.74 1.817-2.712 3.793.035 2.569 2.145 4.341 5.678 4.291 3.533-.049 5.592-1.879 5.557-4.448zm-8.482-6.975c-.018-1.339 1.088-2.277 2.734-2.3 1.667-.023 2.777.884 2.796 2.223.019 1.383-1.065 2.321-2.733 2.344-1.645.023-2.777-.884-2.797-2.267zm6.001 6.922c.021 1.493-1.237 2.565-3.103 2.591-1.843.026-3.152-1.01-3.173-2.503-.021-1.493 1.259-2.565 3.102-2.591 1.866-.026 3.153 1.01 3.174 2.503z" />
        <path
          d="m147.924 182.872-2.502.034-.214-15.37 5.596-.078c3.094-.043 5.161 1.839 5.203 4.825.041 2.964-1.973 4.925-5.067 4.968l-3.094.043.078 5.578zm-.184-13.175.076 5.402 2.808-.039c1.756-.025 2.882-1.095 2.859-2.742-.023-1.668-1.157-2.685-2.934-2.66l-2.809.039z" />
        <path
          d="M50.267 113.884c.435.502 1.118.529 1.62.094.5-.435.57-1.115.136-1.616-.435-.502-1.117-.53-1.619-.095-.501.435-.571 1.115-.137 1.617z" />
        <path
          d="M44.827 120.12c-1.732 1.503-3.966 1.343-5.518-.448-1.54-1.779-1.391-4.026.341-5.529 1.733-1.502 3.977-1.331 5.518.448 1.552 1.791 1.392 4.026-.34 5.529zm-.908-1.049c1.003-.87.962-2.253-.016-3.383-.978-1.129-2.34-1.365-3.344-.495-1.003.87-.962 2.253.016 3.382s2.34 1.366 3.343.496z" />
        <path
          d="M32.24 125.803c1.552 1.791 3.786 1.95 5.519.448 1.732-1.503 1.892-3.739.34-5.529-1.54-1.78-3.785-1.951-5.517-.448-1.733 1.503-1.883 3.75-.341 5.529zm4.594-3.984c.979 1.129 1.019 2.512.016 3.382-1.003.87-2.366.634-3.344-.495-.978-1.13-1.018-2.513-.015-3.383 1.003-.87 2.365-.633 3.343.496z" />
        <path
          d="M30.69 132.381c-1.733 1.503-3.967 1.343-5.518-.448-1.541-1.779-1.392-4.026.341-5.529 1.733-1.502 3.977-1.331 5.518.448 1.551 1.791 1.392 4.026-.34 5.529zm-.909-1.049c1.003-.87.963-2.253-.015-3.383-.978-1.129-2.34-1.365-3.344-.495-1.003.87-.963 2.253.015 3.382.979 1.129 2.341 1.366 3.344.496z" />
        <path
          d="M18.104 138.064c1.55 1.791 3.785 1.95 5.518.448 1.732-1.503 1.892-3.739.34-5.529-1.54-1.78-3.785-1.951-5.517-.448-1.733 1.503-1.883 3.75-.341 5.529zm4.593-3.984c.978 1.129 1.019 2.512.016 3.382-1.004.87-2.366.634-3.344-.495-.978-1.13-1.019-2.513-.016-3.383 1.003-.87 2.366-.633 3.344.496z" />
        <path
          d="M16.553 144.642c-1.733 1.503-3.967 1.343-5.518-.447-1.541-1.78-1.392-4.027.34-5.53 1.733-1.502 3.978-1.331 5.519.448 1.551 1.791 1.392 4.027-.341 5.529zm-.91-1.049c1.004-.87.964-2.253-.014-3.383-.979-1.129-2.341-1.365-3.344-.495-1.003.87-.963 2.253.015 3.382s2.34 1.366 3.344.496z" />
        <path
          d="M3.966 150.325c1.551 1.791 3.786 1.95 5.518.448 1.733-1.503 1.892-3.739.341-5.529-1.541-1.78-3.785-1.951-5.518-.448-1.732 1.503-1.882 3.75-.34 5.529zm4.594-3.984c.978 1.129 1.018 2.512.015 3.382-1.003.87-2.365.634-3.344-.495-.978-1.13-1.018-2.513-.015-3.383 1.003-.87 2.366-.633 3.344.496z" />
        <path
          d="M.787 156.798c.435.501 1.117.529 1.619.094.501-.435.571-1.115.136-1.617-.434-.502-1.117-.529-1.618-.094-.502.435-.572 1.115-.137 1.617z" />
        <path
          d="m4.825 170.773-2.519-2.908 1.231-1.068 6.916 7.984-1.072.929-.899-.738c.069.84-.158 1.776-1.059 2.557-1.573 1.364-3.704 1.255-5.324-.616-1.561-1.802-1.392-4.027.17-5.381.855-.741 1.755-.923 2.556-.759zm1.904 5.54c1.003-.87.973-2.242-.005-3.371-1.008-1.164-2.36-1.389-3.364-.519-1.014.88-.984 2.252.004 3.393.988 1.14 2.35 1.377 3.365.497z" />
        <path
          d="m12.141 173.317 1.3-1.127-2.51-2.897 1.608-1.394c1.607-1.394 1.797-3.317.464-4.857-1.344-1.551-3.264-1.624-4.87-.23l-2.908 2.521 6.916 7.984zm-2.198-5.165-2.43-2.806 1.459-1.265c.923-.801 1.969-.769 2.72.098.74.855.622 1.917-.29 2.708l-1.459 1.265z" />
        <path
          d="m18.201 159.892-.934.81-2.39-2.182c-.533-.477-.615-1.125-.068-1.599.57-.495 1.177-.302 1.573.294l1.82 2.677z" />
        <path d="m44.005 134.476.946-.821-2.28-.858-1.425 1.236 2.76.443z" />
        <path
          d="m57.756 133.756-1.276 1.107-2.599-3-7.042-2.622 1.47-1.275 4.997 1.919-1.143-5.26 1.402-1.216 1.603 7.358 2.588 2.989z" />
        <path
          d="M65.198 123.447c-.919-1.061-2.153-1.149-3.137-.695a2.439 2.439 0 0 0-.29-2.825c-1.107-1.277-2.918-1.225-4.56.199-1.641 1.424-1.95 3.21-.844 4.487.78.902 1.883 1.044 2.742.699-.591.932-.637 2.17.253 3.196 1.156 1.335 3.049 1.331 4.884-.261 1.835-1.591 2.108-3.466.952-4.8zm-7.546.092c-.602-.696-.436-1.679.419-2.421.866-.751 1.851-.766 2.454-.07.622.718.467 1.692-.399 2.443-.855.741-1.851.766-2.474.048zm6.218.979c.672.776.485 1.897-.484 2.737-.957.83-2.104.866-2.776.09-.672-.775-.473-1.906.484-2.736.97-.841 2.105-.867 2.776-.091z" />
        <path
          d="M66.422 115.893c1.562-1.355 3.683-1.257 5.313.625 1.551 1.791 1.415 4.007-.181 5.391-.878.761-1.798.92-2.598.735l.555.917-1.071.929-6.916-7.984 1.23-1.068 2.6 3c-.07-.84.18-1.774 1.069-2.545zm4.062 5.126c1.003-.87.984-2.251-.014-3.403-.988-1.141-2.352-1.356-3.355-.486-1.015.88-.973 2.242.005 3.371.998 1.152 2.35 1.398 3.364.518z" />
        <path
          d="M20.998 186.748c-.918-1.06-2.152-1.149-3.137-.695a2.437 2.437 0 0 0-.29-2.824c-1.107-1.277-2.918-1.225-4.559.199-1.641 1.423-1.95 3.21-.844 4.487.78.901 1.882 1.044 2.741.699-.59.932-.636 2.17.253 3.196 1.156 1.335 3.05 1.331 4.885-.261s2.107-3.466.951-4.801zm-7.545.093c-.603-.696-.436-1.679.419-2.421.866-.751 1.85-.766 2.454-.071.622.719.467 1.692-.4 2.444-.854.741-1.85.766-2.473.048zm6.218.979c.672.776.485 1.896-.484 2.737-.958.83-2.104.866-2.776.09-.672-.775-.474-1.906.484-2.736.969-.841 2.104-.867 2.776-.091z" />
        <path
          d="M24.93 179.923c.984-.454 2.218-.366 3.137.695 1.156 1.334.883 3.209-.952 4.801-1.835 1.591-3.728 1.595-4.884.261-.89-1.027-.844-2.265-.253-3.197-.859.346-1.96.203-2.741-.698-1.107-1.278-.798-3.064.844-4.488 1.641-1.423 3.452-1.476 4.559-.198.75.867.765 2.013.29 2.824zm-3.99-1.633c-.855.741-1.021 1.724-.418 2.42.622.719 1.618.694 2.473-.048.866-.751 1.021-1.725.4-2.443-.604-.696-1.588-.681-2.455.071zm5.316 6.136c.968-.84 1.155-1.961.484-2.737-.672-.775-1.808-.749-2.776.091-.958.83-1.156 1.961-.484 2.737.671.775 1.818.74 2.776-.091z" />
        <path
          d="M28.666 178.84c1.55 1.791 3.785 1.951 5.518.448 1.732-1.503 1.892-3.738.34-5.529-1.54-1.779-3.785-1.95-5.517-.448-1.733 1.503-1.883 3.75-.341 5.529zm4.594-3.984c.978 1.129 1.018 2.513.015 3.383-1.003.87-2.366.633-3.344-.496-.978-1.129-1.018-2.512-.015-3.382 1.003-.87 2.365-.634 3.344.495z" />
        <path
          d="M62.449 154.754c-.502.435-1.184.408-1.62-.094-.434-.502-.364-1.181.138-1.616.501-.435 1.184-.408 1.618.094.435.502.365 1.182-.136 1.616z" />
        <path
          d="m64.136 139.209 2.52 2.908c-.801-.164-1.702.018-2.557.759-1.562 1.354-1.73 3.579-.17 5.381 1.62 1.871 3.751 1.98 5.324.616.9-.781 1.128-1.717 1.06-2.557l.899.738 1.071-.929-6.916-7.984-1.23 1.068zm4.418 5.077c.978 1.129 1.009 2.501.005 3.371-1.014.88-2.377.643-3.365-.497-.987-1.141-1.018-2.513-.004-3.393 1.004-.87 2.356-.645 3.364.519z" />
        <path
          d="M74.41 137.009c.985-.454 2.219-.366 3.138.695 1.156 1.335.883 3.209-.952 4.801-1.836 1.592-3.729 1.595-4.885.261-.889-1.027-.843-2.265-.253-3.196-.858.345-1.96.202-2.74-.699-1.108-1.277-.798-3.064.843-4.487 1.642-1.424 3.453-1.476 4.56-.199.75.867.764 2.013.29 2.824zm-3.99-1.633c-.854.741-1.02 1.725-.418 2.421.623.718 1.619.693 2.474-.048.866-.752 1.021-1.725.399-2.444-.603-.696-1.588-.68-2.454.071zm5.316 6.137c.969-.841 1.156-1.962.484-2.737-.672-.776-1.807-.75-2.776.09-.957.831-1.156 1.962-.484 2.737.672.776 1.819.74 2.776-.09z" />
        <path
          d="m81.04 138.53 1.3-1.127-2.51-2.897 1.608-1.394c1.607-1.394 1.797-3.317.464-4.857-1.344-1.551-3.264-1.624-4.87-.23l-2.908 2.521 6.916 7.984zm-2.198-5.165-2.43-2.805 1.459-1.266c.923-.801 1.969-.769 2.72.098.74.856.622 1.917-.29 2.708l-1.459 1.265z" />
        <path d="m27.239 198.954-.946.82-2.76-.443 1.425-1.236 2.28.859z" />
        <path
          d="m33.655 196.426.946-.821-1.83-2.667c-.397-.595-1.003-.788-1.573-.294-.547.475-.454 1.113.079 1.589l2.378 2.193z" />
        <path
          d="m36.129 194.28.946-.82-1.831-2.667c-.396-.595-1.003-.789-1.573-.294-.547.474-.465 1.122.068 1.599l2.39 2.182z" />
        <path
          d="m42.9 188.407-.934.81-2.39-2.182c-.532-.477-.614-1.125-.067-1.599.57-.494 1.176-.301 1.572.294l1.82 2.677z" />
        <path
          d="M59.042 181.179c.435.502 1.117.529 1.619.094.502-.435.571-1.115.137-1.617-.435-.501-1.117-.529-1.619-.094-.502.435-.572 1.115-.137 1.617z" />
        <path
          d="m64.868 168.636-2.52-2.909 1.232-1.068 6.916 7.985-1.072.929-.899-.738c.069.839-.159 1.775-1.06 2.556-1.572 1.365-3.703 1.255-5.323-.615-1.561-1.803-1.392-4.027.17-5.381.855-.742 1.755-.923 2.556-.759zm1.904 5.539c1.003-.87.973-2.241-.005-3.371-1.008-1.163-2.36-1.388-3.364-.518-1.014.88-.984 2.252.004 3.392.988 1.141 2.35 1.377 3.365.497z" />
        <path
          d="M75.76 164.223c-.919-1.061-2.153-1.149-3.137-.695a2.437 2.437 0 0 0-.29-2.824c-1.107-1.278-2.918-1.225-4.56.198-1.64 1.424-1.95 3.21-.843 4.488.78.901 1.882 1.044 2.74.698-.59.932-.635 2.17.254 3.197 1.156 1.334 3.049 1.33 4.884-.261 1.835-1.592 2.108-3.467.952-4.801zm-7.545.092c-.603-.696-.437-1.679.418-2.42.867-.752 1.851-.767 2.454-.071.623.718.468 1.692-.399 2.443-.855.742-1.851.767-2.473.048zm6.218.979c.671.776.484 1.897-.484 2.737-.958.831-2.105.866-2.776.091-.672-.776-.474-1.907.483-2.737.97-.84 2.105-.866 2.776-.091z" />
        <path
          d="m80.552 163.922-1.3 1.127-6.915-7.984 2.907-2.521c1.607-1.394 3.526-1.321 4.87.23 1.334 1.54 1.143 3.463-.464 4.857l-1.607 1.394 2.51 2.897zm-5.928-6.844 2.43 2.806 1.46-1.265c.912-.791 1.03-1.853.29-2.708-.752-.867-1.797-.899-2.72-.098l-1.46 1.265z" />
        <path
          d="m84.378 152.434.935-.81-1.82-2.677c-.396-.595-1.002-.789-1.572-.294-.547.474-.465 1.122.068 1.599l2.389 2.182z" />
        <path
          d="M70.835 190.047c.985-.454 2.219-.366 3.138.695 1.156 1.334.883 3.209-.952 4.8-1.836 1.592-3.729 1.596-4.885.261-.889-1.026-.843-2.264-.253-3.196-.858.345-1.96.203-2.741-.699-1.106-1.277-.797-3.063.844-4.487 1.642-1.424 3.453-1.476 4.56-.199.75.867.764 2.013.29 2.825zm-3.99-1.634c-.854.742-1.02 1.725-.418 2.421.622.718 1.619.693 2.474-.048.866-.751 1.021-1.725.399-2.443-.603-.696-1.588-.681-2.454.07zm5.316 6.137c.969-.84 1.156-1.961.484-2.737-.672-.776-1.807-.75-2.776.091-.958.83-1.156 1.961-.484 2.736.672.776 1.819.74 2.776-.09z" />
        <path
          d="M81.041 184.611c-.919-1.061-2.153-1.149-3.137-.695a2.437 2.437 0 0 0-.29-2.824c-1.107-1.278-2.918-1.225-4.56.199-1.64 1.423-1.95 3.209-.843 4.487.78.901 1.882 1.044 2.74.699-.59.931-.635 2.169.254 3.196 1.156 1.334 3.049 1.33 4.884-.261 1.835-1.592 2.108-3.466.952-4.801zm-7.545.092c-.603-.695-.437-1.679.418-2.42.867-.751 1.852-.767 2.454-.071.623.719.468 1.692-.399 2.443-.855.742-1.85.767-2.473.048zm6.218.98c.671.775.485 1.896-.484 2.736-.958.831-2.105.867-2.776.091-.672-.776-.474-1.906.484-2.737.968-.84 2.104-.866 2.776-.09z" />
        <path
          d="m83.525 178.142-.935.811-2.389-2.182c-.533-.477-.615-1.125-.068-1.6.57-.494 1.177-.301 1.573.295l1.82 2.676z" />
        <path
          d="M79.555 219.152c.434.501 1.117.529 1.618.094.502-.435.572-1.115.137-1.617-.434-.502-1.117-.529-1.618-.094-.502.435-.572 1.115-.137 1.617z" />
        <path
          d="M88.252 213.127c-1.733 1.502-3.967 1.343-5.518-.448-1.541-1.779-1.392-4.026.34-5.529 1.734-1.503 3.978-1.332 5.519.448 1.551 1.79 1.392 4.026-.341 5.529zm-.909-1.05c1.003-.87.963-2.253-.015-3.382s-2.341-1.366-3.344-.496c-1.003.87-.963 2.253.015 3.383.978 1.129 2.34 1.365 3.344.495z" />
        <path
          d="M93.692 206.89c.435.502 1.117.53 1.619.095.501-.435.571-1.115.136-1.617-.434-.502-1.117-.529-1.618-.094-.502.435-.572 1.115-.137 1.616z" />
        <path
          d="M94.112 232.893 92.836 234l-2.599-3-7.042-2.622 1.47-1.275 4.997 1.919-1.143-5.26 1.402-1.216 1.603 7.358 2.588 2.989z" />
        <path
          d="M101.554 222.584c-.919-1.061-2.153-1.149-3.137-.695a2.439 2.439 0 0 0-.29-2.825c-1.107-1.277-2.918-1.224-4.56.199-1.641 1.424-1.95 3.21-.844 4.487.78.902 1.883 1.044 2.741.699-.59.932-.636 2.17.254 3.196 1.156 1.335 3.048 1.331 4.884-.261 1.835-1.591 2.108-3.466.952-4.8zm-7.546.092c-.602-.696-.436-1.679.419-2.421.866-.751 1.851-.766 2.454-.07.622.718.467 1.692-.4 2.443-.854.741-1.85.767-2.473.048zm6.218.979c.672.776.485 1.897-.484 2.737-.957.83-2.104.866-2.776.091-.672-.776-.473-1.907.484-2.737.969-.841 2.104-.866 2.776-.091z" />
        <path
          d="m106.346 222.283-1.3 1.127-6.916-7.985 2.907-2.521c1.607-1.393 3.527-1.321 4.871.231 1.334 1.54 1.143 3.463-.464 4.857l-1.608 1.394 2.51 2.897zm-5.928-6.844 2.43 2.806 1.459-1.266c.912-.79 1.031-1.852.29-2.707-.751-.867-1.797-.899-2.72-.098l-1.459 1.265z" />
        <path
          d="M209.888 142.63c-.345-.269-.415-.713-.146-1.059.268-.345.716-.387 1.062-.119.345.269.415.714.146 1.059-.268.346-.716.388-1.062.119z" />
        <path
          d="M214.748 146.424c-1.193-.928-1.376-2.394-.418-3.626.951-1.225 2.422-1.416 3.614-.488 1.193.928 1.37 2.401.418 3.626-.958 1.232-2.422 1.416-3.614.488zm.561-.723c.69.538 1.578.334 2.182-.443.604-.777.583-1.689-.108-2.226-.69-.537-1.578-.334-2.182.443-.604.778-.583 1.689.108 2.226z" />
        <path
          d="M219.195 146.584c-.958 1.232-.775 2.697.418 3.625 1.192.928 2.657.745 3.615-.488.951-1.224.774-2.697-.418-3.625-1.193-.928-2.663-.737-3.615.488zm3.162 2.46c-.604.777-1.493.98-2.183.443-.69-.537-.712-1.449-.108-2.226.604-.777 1.492-.98 2.182-.443.691.537.713 1.449.109 2.226z" />
        <path
          d="M224.478 153.995c-1.193-.928-1.376-2.393-.418-3.626.952-1.224 2.422-1.416 3.615-.488 1.192.928 1.369 2.402.418 3.626-.958 1.233-2.423 1.416-3.615.488zm.561-.722c.691.537 1.579.334 2.183-.443.604-.778.582-1.689-.108-2.226-.691-.538-1.579-.334-2.183.443-.604.777-.582 1.689.108 2.226z" />
        <path
          d="M228.925 154.155c-.958 1.233-.774 2.698.418 3.626 1.193.928 2.657.745 3.615-.488.952-1.225.775-2.698-.418-3.626-1.193-.928-2.663-.737-3.615.488zm3.162 2.46c-.604.778-1.492.981-2.183.444-.69-.538-.712-1.449-.108-2.226.604-.778 1.492-.981 2.183-.444.69.538.712 1.449.108 2.226z" />
        <path
          d="M234.208 161.567c-1.192-.928-1.375-2.394-.418-3.626.952-1.225 2.423-1.416 3.615-.488 1.193.928 1.37 2.401.418 3.626-.958 1.232-2.422 1.416-3.615.488zm.562-.723c.69.538 1.578.334 2.182-.443.604-.777.582-1.689-.108-2.226-.691-.537-1.579-.334-2.183.443-.604.778-.582 1.689.109 2.226z" />
        <path
          d="M238.656 161.727c-.958 1.232-.775 2.697.417 3.625 1.193.928 2.657.745 3.615-.488.952-1.224.775-2.697-.418-3.625-1.192-.928-2.663-.737-3.614.488zm3.161 2.46c-.604.777-1.492.98-2.182.443-.691-.537-.713-1.449-.109-2.226.604-.777 1.493-.98 2.183-.443.691.537.712 1.449.108 2.226z" />
        <path
          d="M243.945 169.13c-.345-.268-.415-.713-.147-1.059.269-.345.717-.387 1.062-.118.345.268.415.713.146 1.059-.268.345-.716.387-1.061.118z" />
        <path
          d="m202.789 143.971-1.556 2.002c.003-.539-.229-1.098-.818-1.556-1.075-.836-2.533-.661-3.497.58-1 1.287-.798 2.679.285 3.522.619.482 1.253.509 1.787.357l-.362.676.737.574 4.271-5.495-.847-.66zm-2.713 3.508c-.604.777-1.487.972-2.177.435-.698-.543-.72-1.455-.11-2.24.61-.785 1.492-.98 2.19-.437.691.537.719 1.441.097 2.242z" />
        <path
          d="m201.422 151.726-.895-.696 4.271-5.495 2.001 1.557c1.106.86 1.305 2.111.475 3.179-.824 1.06-2.09 1.183-3.196.322l-1.107-.861-1.549 1.994zm3.66-4.71-1.5 1.931 1.004.782c.627.488 1.328.429 1.786-.16.464-.597.35-1.277-.285-1.772l-1.005-.781z" />
        <path
          d="m209.332 152.729.643.5 1.495-1.519c.334-.333.381-.75-.011-1.055-.377-.293-.784-.157-1.024.249l-1.103 1.825z" />
        <path d="m230.347 167.167-.651-.507-.067-1.841.98.763-.262 1.585z" />
        <path
          d="m231.044 174.777.879.683 1.599-2.057 4.547-1.979-.965-.751-3.251 1.413.599-3.476-1.012-.788-.791 4.89-1.605 2.065z" />
        <path
          d="M239.582 176.834c.419.578.52 1.388-.047 2.118-.714.918-1.96.982-3.223-.001s-1.508-2.206-.794-3.125c.549-.706 1.354-.836 2.032-.573a1.582 1.582 0 0 1 .1-1.862c.683-.88 1.877-.908 3.006-.029 1.13.879 1.396 2.043.713 2.922a1.604 1.604 0 0 1-1.787.55zm.543-2.789c-.588-.458-1.244-.44-1.616.039-.385.495-.241 1.136.347 1.594.597.464 1.245.439 1.63-.055.372-.479.236-1.114-.361-1.578zm-3.282 4.223c.667.519 1.415.496 1.83-.037.415-.534.252-1.265-.414-1.784-.659-.513-1.415-.496-1.83.038-.415.533-.245 1.27.414 1.783z" />
        <path
          d="M244.847 182.292c1.007-1.295.798-2.68-.276-3.516-.612-.476-1.248-.517-1.781-.365l1.604-2.065-.847-.659-4.271 5.495.738.574.521-.476c-.017.54.203 1.115.807 1.585 1.099.855 2.547.659 3.505-.573zm-.871-.678c-.616.793-1.506.982-2.196.445-.698-.543-.713-1.448-.096-2.241.604-.778 1.478-.979 2.176-.436.691.537.726 1.447.116 2.232z" />
        <path
          d="M193.034 156.361c.419.579.521 1.388-.047 2.118-.714.919-1.959.982-3.222-.001-1.264-.982-1.509-2.206-.795-3.125.549-.706 1.355-.835 2.032-.573a1.582 1.582 0 0 1 .1-1.862c.683-.879 1.877-.908 3.007-.029 1.129.879 1.395 2.043.712 2.923a1.605 1.605 0 0 1-1.787.549zm.544-2.789c-.589-.458-1.245-.44-1.617.039-.385.495-.241 1.136.348 1.594.596.464 1.245.439 1.629-.055.372-.479.236-1.114-.36-1.578zm-3.283 4.223c.667.519 1.415.497 1.83-.037.415-.534.253-1.265-.414-1.784-.659-.513-1.415-.496-1.83.038-.415.534-.245 1.271.414 1.783z" />
        <path
          d="M197.852 162.265c.568-.73.467-1.54.047-2.118a1.604 1.604 0 0 0 1.787-.55c.683-.879.417-2.043-.712-2.922-1.13-.879-2.323-.851-3.007.029a1.582 1.582 0 0 0-.1 1.862c-.677-.263-1.482-.133-2.032.573-.713.919-.468 2.142.795 3.125 1.263.983 2.509.919 3.222.001zm-1.026-4.868c.372-.479 1.029-.497 1.617-.039.596.464.732 1.099.36 1.577-.384.495-1.033.52-1.629.056-.589-.458-.732-1.099-.348-1.594zm.164 4.147c-.415.533-1.163.556-1.829.037-.659-.513-.829-1.25-.415-1.783.415-.534 1.171-.551 1.83-.038.667.519.829 1.25.414 1.784z" />
        <path
          d="M199.495 166.05c-1.193-.928-1.376-2.393-.418-3.626.952-1.224 2.422-1.416 3.615-.488 1.192.928 1.37 2.401.418 3.626-.958 1.233-2.423 1.416-3.615.488zm.561-.722c.691.537 1.579.334 2.183-.444.604-.777.582-1.688-.108-2.225-.691-.538-1.579-.334-2.183.443-.604.777-.582 1.689.108 2.226z" />
        <path
          d="M218.815 180.126c-.268.346-.198.791.147 1.059.345.269.793.227 1.061-.119.269-.345.199-.79-.146-1.058-.345-.269-.793-.227-1.062.118z" />
        <path
          d="m227.663 182.287 1.556-2.002.847.659-4.271 5.496-.737-.574.362-.676a1.932 1.932 0 0 1-1.787-.358c-1.083-.842-1.285-2.234-.285-3.522.964-1.24 2.422-1.416 3.497-.579.589.458.821 1.017.818 1.556zm-3.334 1.941c.69.537 1.573.341 2.177-.436.622-.8.594-1.704-.097-2.241-.698-.544-1.58-.348-2.19.437-.61.785-.588 1.696.11 2.24z" />
        <path
          d="M231.909 188.765c.567-.73.466-1.539.047-2.118a1.603 1.603 0 0 0 1.786-.549c.684-.88.418-2.044-.712-2.923s-2.323-.85-3.006.029c-.482.62-.434 1.351-.1 1.862-.678-.262-1.483-.133-2.032.573-.714.919-.469 2.143.794 3.125 1.263.983 2.509.92 3.223.001zm-1.027-4.868c.372-.479 1.029-.497 1.617-.039.596.464.732 1.099.36 1.578-.384.494-1.033.519-1.629.055-.588-.458-.732-1.099-.348-1.594zm.164 4.147c-.414.534-1.162.556-1.829.037-.659-.512-.829-1.249-.414-1.783.415-.534 1.17-.551 1.829-.038.667.519.829 1.25.414 1.784z" />
        <path
          d="m232.717 191.825-.894-.695 4.27-5.496 2.001 1.557c1.106.861 1.305 2.111.475 3.179-.823 1.06-2.09 1.183-3.196.322l-1.106-.861-1.55 1.994zm3.661-4.71-1.501 1.931 1.004.782c.628.488 1.328.429 1.786-.16.464-.597.35-1.277-.285-1.771l-1.004-.782z" />
        <path d="m185.252 163.572.652.506.262-1.584-.981-.763.067 1.841z" />
        <path
          d="m189.01 168.41-.651-.506 1.111-1.819c.239-.406.64-.548 1.016-.255.392.305.345.722.012 1.055l-1.488 1.525z" />
        <path
          d="m190.712 169.735-.651-.507 1.103-1.824c.24-.406.648-.542 1.025-.249.392.305.345.722.011 1.055l-1.488 1.525z" />
        <path
          d="m194.079 172.355.643.5 1.496-1.519c.334-.332.381-.749-.011-1.055-.377-.293-.785-.156-1.025.249l-1.103 1.825z" />
        <path
          d="M201.605 183.427c-.345-.269-.415-.714-.146-1.059.268-.345.716-.387 1.061-.119.346.269.415.714.147 1.059-.269.346-.717.387-1.062.119z" />
        <path
          d="m211.862 182.527-1.556 2.001c.004-.539-.229-1.098-.817-1.556-1.075-.836-2.534-.661-3.498.58-1 1.287-.798 2.679.285 3.522.62.482 1.253.509 1.787.357l-.362.676.738.574 4.27-5.495-.847-.659zm-2.713 3.507c-.604.777-1.486.973-2.177.435-.698-.543-.72-1.454-.11-2.239.61-.786 1.493-.981 2.191-.438.69.538.718 1.441.096 2.242z" />
        <path
          d="M214.599 188.889c.419.578.52 1.388-.047 2.118-.714.918-1.959.982-3.223-.001-1.263-.983-1.508-2.206-.794-3.125.549-.706 1.355-.836 2.032-.573a1.582 1.582 0 0 1 .1-1.862c.683-.88 1.877-.909 3.006-.029 1.13.879 1.396 2.043.713 2.922a1.604 1.604 0 0 1-1.787.55zm.544-2.789c-.589-.458-1.245-.44-1.617.039-.385.495-.241 1.136.348 1.593.596.464 1.244.44 1.629-.055.372-.478.236-1.113-.36-1.577zm-3.283 4.223c.667.519 1.415.496 1.83-.037.415-.534.253-1.265-.414-1.784-.659-.513-1.415-.496-1.83.038-.415.533-.245 1.27.414 1.783z" />
        <path
          d="m214.466 193.371.894.696 1.55-1.994 1.106.861c1.106.861 2.373.738 3.197-.322.829-1.068.631-2.319-.476-3.179l-2-1.557-4.271 5.495zm3.054-2.083 1.501-1.931 1.004.781c.636.495.749 1.175.285 1.772-.457.589-1.158.648-1.786.16l-1.004-.782z" />
        <path
          d="m223.913 195.57-.643-.501 1.103-1.824c.24-.406.648-.542 1.025-.249.392.305.345.722.011 1.054l-1.496 1.52z" />
        <path
          d="M197.195 193.248c.568-.73.467-1.539.047-2.117a1.604 1.604 0 0 0 1.787-.55c.683-.879.417-2.044-.712-2.923-1.13-.879-2.323-.85-3.007.029a1.583 1.583 0 0 0-.1 1.863c-.677-.263-1.483-.134-2.032.573-.713.918-.468 2.142.795 3.125 1.263.983 2.509.919 3.222 0zm-1.026-4.867c.372-.479 1.028-.498 1.617-.04.596.464.732 1.099.36 1.578-.384.495-1.033.519-1.629.055-.589-.458-.732-1.099-.348-1.593zm.164 4.146c-.415.534-1.163.557-1.829.038-.659-.513-.83-1.25-.415-1.784s1.171-.55 1.83-.037c.667.518.829 1.249.414 1.783z" />
        <path
          d="M202.107 194.916c.42.579.521 1.388-.046 2.118-.714.919-1.96.983-3.223 0s-1.508-2.207-.794-3.125c.549-.707 1.354-.836 2.031-.574a1.582 1.582 0 0 1 .1-1.862c.684-.879 1.877-.908 3.007-.029 1.13.879 1.396 2.044.712 2.923a1.603 1.603 0 0 1-1.787.549zm.544-2.789c-.588-.458-1.245-.439-1.617.039-.384.495-.24 1.136.348 1.594.596.464 1.245.439 1.629-.055.372-.479.236-1.114-.36-1.578zm-3.282 4.224c.667.519 1.414.496 1.829-.038.415-.534.253-1.265-.414-1.784-.659-.513-1.415-.496-1.829.038-.415.534-.245 1.271.414 1.784z" />
        <path
          d="m205.913 197.311.644.501 1.495-1.52c.334-.332.381-.749-.011-1.054-.377-.293-.785-.157-1.024.248l-1.104 1.825z" />
        <path
          d="M179.708 201.557c-.345-.268-.415-.713-.147-1.059.269-.345.717-.387 1.062-.118.345.268.415.713.147 1.058-.269.346-.717.388-1.062.119z" />
        <path
          d="M184.149 201.725c-.958 1.233-.775 2.698.418 3.626 1.193.928 2.657.744 3.615-.488.952-1.225.774-2.698-.418-3.626-1.193-.928-2.663-.737-3.615.488zm3.162 2.46c-.604.777-1.492.981-2.183.444-.69-.538-.712-1.449-.108-2.226.604-.778 1.492-.981 2.183-.444.69.538.712 1.449.108 2.226z" />
        <path
          d="M189.438 209.129c-.345-.269-.415-.714-.146-1.059.268-.346.716-.387 1.061-.119.346.269.415.714.147 1.059s-.717.387-1.062.119z" />
        <path
          d="m171.673 210.989.878.684 1.599-2.057 4.547-1.979-.965-.751-3.251 1.413.599-3.477-1.012-.787-.791 4.89-1.604 2.064z" />
        <path
          d="M180.21 213.047c.419.578.521 1.387-.047 2.118-.714.918-1.959.982-3.222-.001s-1.508-2.207-.795-3.125c.549-.707 1.355-.836 2.032-.573a1.583 1.583 0 0 1 .1-1.863c.684-.879 1.877-.908 3.007-.029 1.129.88 1.395 2.044.712 2.923a1.604 1.604 0 0 1-1.787.55zm.544-2.79c-.589-.457-1.245-.439-1.617.04-.384.494-.241 1.135.348 1.593.596.464 1.245.44 1.629-.055.372-.479.236-1.114-.36-1.578zm-3.283 4.224c.667.519 1.415.496 1.83-.038.415-.534.253-1.264-.414-1.783-.659-.513-1.415-.497-1.83.037-.415.534-.245 1.271.414 1.784z" />
        <path
          d="m180.077 217.529.895.696 1.549-1.994 1.107.861c1.106.861 2.372.737 3.196-.322.83-1.068.631-2.319-.475-3.18l-2.001-1.556-4.271 5.495zm3.054-2.083 1.501-1.931 1.004.781c.636.495.749 1.175.286 1.772-.458.588-1.159.648-1.786.159l-1.005-.781z" />
      </g> 
   </mask>
  </defs>

  <rect width="100%" height="100%" fill="url(#gradient)" mask="url(#questions)" />
</svg>